<svg height='100px' width='100px'  fill="#ffffff" xmlns="http://www.w3.org/2000/svg" xmlns:xlink="http://www.w3.org/1999/xlink" viewBox="0 0 60 60" version="1.1" x="0px" y="0px"><title>add-icon@1x</title><desc>Created with Sketch.</desc><g stroke="none" stroke-width="1" fill="none" fill-rule="evenodd"><g transform="translate(-1505.000000, -2914.000000)" fill="#ffffff"><g transform="translate(275.000000, 1935.000000)"><g transform="translate(75.000000, 512.000000)"><g transform="translate(1155.000000, 467.000000)"><path d="M33,27 L58,27 C59.1045695,27 60,27.8954305 60,29 L60,31 C60,32.1045695 59.1045695,33 58,33 L33,33 L33,58 C33,59.1045695 32.1045695,60 31,60 L29,60 C27.8954305,60 27,59.1045695 27,58 L27,33 L2,33 C0.8954305,33 1.3527075e-16,32.1045695 0,31 L0,29 C-1.3527075e-16,27.8954305 0.8954305,27 2,27 L27,27 L27,2 C27,0.8954305 27.8954305,2.02906125e-16 29,0 L31,0 C32.1045695,-2.02906125e-16 33,0.8954305 33,2 L33,27 Z"></path></g></g></g></g></g></svg>