<svg height='100px' width='100px'  fill="#ffffff" xmlns="http://www.w3.org/2000/svg" xmlns:xlink="http://www.w3.org/1999/xlink" version="1.1" x="0px" y="0px" viewBox="0 0 100 100" enable-background="new 0 0 100 100" xml:space="preserve"><g><g><path fill="none" d="M37.166,75.997c-0.368-0.04-0.733-0.079-1.095-0.119c-0.234-0.029-0.465-0.059-0.696-0.089    c0.232,0.03,0.463,0.059,0.697,0.089C36.434,75.918,36.799,75.957,37.166,75.997c0.734,0.08,1.478,0.16,2.228,0.24    c0.533,0.038,1.071,0.076,1.609,0.115c-0.538-0.039-1.076-0.077-1.61-0.115C38.644,76.157,37.9,76.076,37.166,75.997z"></path><path fill="none" d="M22.808,74.006c0.072,0.011,0.138,0.021,0.212,0.033C22.946,74.027,22.879,74.017,22.808,74.006z"></path><path fill="none" d="M28.277,74.828c0.848,0.123,1.726,0.247,2.658,0.377c0.854,0.124,1.749,0.24,2.661,0.357    c-0.912-0.117-1.808-0.234-2.661-0.357C30.004,75.075,29.125,74.951,28.277,74.828z"></path><path fill="none" d="M43.392,88.104c-0.182-0.856-0.191-1.608-0.178-1.951l0.356-9.698c-0.258,0.002-0.514-0.001-0.769-0.006    l-0.264-0.007l0.264,0.008c0.254,0.005,0.51,0.007,0.768,0.006l-0.356,9.698C43.201,86.496,43.21,87.248,43.392,88.104z"></path><path fill="none" d="M24.468,72.659c0.455,0.077,0.936,0.167,1.447,0.249c0.51,0.082,1.046,0.169,1.607,0.26    c1.119,0.186,2.333,0.372,3.616,0.568c0.643,0.095,1.301,0.209,1.977,0.297c0.674,0.092,1.364,0.186,2.066,0.281    c0.351,0.049,0.705,0.096,1.061,0.145c0.354,0.042,0.709,0.084,1.069,0.126c0.717,0.084,1.443,0.169,2.176,0.255    c0.742,0.06,1.492,0.119,2.243,0.18l0.282,0.023l0.122,0.009l0.14,0.006l0.559,0.016c0.37,0.008,0.741,0.013,1.103,0.006    c0.363-0.009,0.72-0.027,1.055-0.073c0.332-0.046,0.644-0.121,0.874-0.235c0.233-0.117,0.374-0.258,0.496-0.483    c0.117-0.227,0.199-0.531,0.248-0.862c0.051-0.33,0.077-0.684,0.096-1.037l0.013-0.27l0.01-0.261    c0.005-0.184,0.011-0.367,0.017-0.55c0.023-0.729,0.045-1.452,0.067-2.161c0.012-0.355,0.022-0.707,0.033-1.055    c0.005-0.175,0.01-0.348,0.016-0.52l0.008-0.255c0.005-0.098,0.01-0.194,0.015-0.29c0.046-0.768,0.239-1.49,0.5-2.143    c0.261-0.656,0.589-1.249,0.936-1.791c0.349-0.545,0.727-1.034,1.106-1.486c0.76-0.902,1.52-1.658,2.222-2.292    c0.701-0.636,1.341-1.152,1.879-1.564c0.092-0.071,0.181-0.138,0.268-0.204l-27.74-3.611c0,0-0.39,0.199-0.536,0.272    c-1.02,0.508-3.88,2.075-4.867,3.208l-0.165,0.188c-1.156,1.319-1.919,2.19-2.15,8.486c-0.138,3.762,0.75,5.069,1.3,5.429    c0.357,0.235,1.988,0.638,2.481,0.726C22.767,72.361,23.56,72.5,24.468,72.659z M30.333,67.632    c0.02-0.539,0.502-0.942,1.036-0.866l2.075,0.297c0.46,0.066,0.796,0.468,0.779,0.932l-0.096,2.624    c-0.02,0.539-0.502,0.942-1.036,0.866l-2.075-0.297c-0.46-0.066-0.796-0.468-0.779-0.932L30.333,67.632z"></path><path fill="none" d="M28.337,37.535c0.709,0.096,2.465,0.331,4.945,0.666c0.009-0.03,0.017-0.059,0.027-0.089    c0.098-0.309,0.195-0.616,0.291-0.918c0.095-0.304,0.207-0.597,0.308-0.888c0.198-0.587,0.421-1.142,0.626-1.67    c0.098-0.266,0.213-0.517,0.317-0.764c0.107-0.245,0.201-0.484,0.308-0.709c0.033-0.07,0.063-0.138,0.094-0.206    c-0.653-0.268-0.877-0.72-0.314-2.3c0.272-0.757,0.886-2.379,2.608-2.04c1.724,0.337,2.825,0.575,1.835,2.678    c-0.852,1.807-1.276,2.367-2.318,2.187c-0.074,0.149-0.149,0.302-0.226,0.462c-0.107,0.21-0.203,0.437-0.311,0.669    c-0.104,0.233-0.22,0.47-0.323,0.722c-0.213,0.501-0.441,1.025-0.649,1.583c-0.105,0.277-0.222,0.557-0.322,0.845    c-0.077,0.22-0.156,0.445-0.234,0.669c0.66,0.088,1.356,0.182,2.085,0.28c2.73,0.366,5.914,0.795,9.327,1.254    c1.024,0.138,2.072,0.278,3.133,0.421c0.023-0.075,0.047-0.151,0.07-0.226c0.098-0.309,0.195-0.616,0.291-0.918    c0.095-0.302,0.208-0.597,0.308-0.888c0.198-0.585,0.421-1.14,0.626-1.67c0.098-0.265,0.215-0.517,0.317-0.764    c0.107-0.244,0.201-0.484,0.308-0.709c0.023-0.049,0.045-0.096,0.067-0.145c-0.664-0.268-0.894-0.716-0.322-2.306    c0.272-0.756,0.89-2.376,2.612-2.034c1.722,0.341,2.824,0.582,1.828,2.682c-0.851,1.798-1.277,2.36-2.311,2.184    c-0.064,0.129-0.128,0.261-0.195,0.399c-0.107,0.21-0.203,0.438-0.311,0.669c-0.102,0.233-0.22,0.47-0.323,0.722    c-0.211,0.501-0.441,1.025-0.649,1.583c-0.105,0.279-0.222,0.557-0.322,0.845c-0.094,0.267-0.188,0.536-0.282,0.807    c0.137,0.019,0.274,0.036,0.413,0.055c0.895,0.121,1.799,0.242,2.705,0.364l0.34,0.045l0.085,0.013l0.038,0.004l0.019,0.002    l0.172,0.017l0.17,0.017c0.058,0.006,0.117,0.013,0.158,0.011l0.281,0.009c0.387-0.006,0.784-0.039,1.147-0.14    c0.729-0.198,1.374-0.605,1.878-1.207c0.512-0.592,0.898-1.334,1.185-2.121c0.081-0.191,0.137-0.397,0.201-0.599l0.094-0.302    l0.098-0.334c0.135-0.454,0.28-0.881,0.431-1.31c0.304-0.851,0.629-1.678,0.966-2.483c0.676-1.609,1.4-3.133,2.153-4.547    c0.755-1.415,1.539-2.72,2.351-3.878c0.814-1.156,1.653-2.17,2.531-2.975c0.464-0.429,0.943-0.798,1.427-1.091    c-3.402-0.819-12.054-2.167-23.662-3.678c-0.714-0.092-1.409-0.152-2.068-0.176c-6.026-0.221-9.054,2.335-11.987,6.532    c-3.033,4.339-5.018,9.357-5.795,12.334c-0.167,0.64-0.135,1.139,0.094,1.484C27.057,37.228,27.521,37.366,28.337,37.535z"></path><path fill="none" d="M67.118,78.394c0.087-1.321,0.171-2.569,0.212-3.687c0.243-6.632,1.037-8.753,6.538-12.146    c2.967-1.83,5.127-2.618,6.667-2.416c-0.387-0.501-0.866-0.962-1.407-1.293c-1.108-0.68-2.277-0.753-3.476-0.218    c-0.214,0.096-0.483,0.211-0.792,0.343c-1.23,0.524-3.089,1.317-4.537,2.209c-5.09,3.139-5.66,4.891-5.885,11.024    c-0.038,1.042-0.112,2.229-0.191,3.488c-0.354,5.647-0.841,13.378,1.62,15.683c0.569,0.531,1.279,0.733,2.175,0.617    c0.053-0.006,0.105-0.006,0.156-0.001C66.387,89.345,66.773,83.56,67.118,78.394z"></path><path fill="none" d="M80.877,61.666c-0.725-0.379-2.402-0.329-6.286,2.068c-5.091,3.139-5.66,4.891-5.885,11.024    c-0.042,1.139-0.126,2.397-0.215,3.728c-0.343,5.144-0.771,11.547,1.269,13.213c0.09,0.074,0.185,0.136,0.285,0.188    c1.723-0.426,3.526-1.063,5.402-1.915c5.394-2.45,5.671-7.498,6.057-14.484c0.03-0.546,0.061-1.101,0.094-1.665    c0.157-2.617,0.089-6.79-0.17-11.573C81.286,61.979,81.103,61.785,80.877,61.666z"></path><path fill="none" d="M58.374,8.215c-0.338-0.443-0.748-0.672-1.293-0.719c-2.541-0.222-3.124,1.766-4.028,7.087    c-0.017,0.101-0.036,0.208-0.054,0.31l6.197,0.892C59.466,13.637,59.633,9.866,58.374,8.215z"></path><path fill="none" d="M56.12,43.916c0.035-0.514,0.062-0.944,0.08-1.277l-0.175,0.009c-0.13,0.005-0.255,0.018-0.388,0.015    l-0.398-0.012c-0.069-0.001-0.125-0.007-0.181-0.012l-0.172-0.017l-0.17-0.016l-0.066-0.008l-0.042-0.006l-0.085-0.01l-0.34-0.046    c-0.908-0.117-1.81-0.234-2.707-0.351c-0.233-0.031-0.463-0.061-0.695-0.09c-0.041,0.132-0.083,0.266-0.123,0.398    c-0.182,0.609-0.338,1.225-0.505,1.829c-0.149,0.608-0.283,1.209-0.418,1.789c-0.123,0.584-0.223,1.152-0.326,1.689    c-0.016,0.082-0.031,0.161-0.046,0.241l0.83,0.135c0.014,0.003,0.026,0.008,0.039,0.011c0.025,0.005,0.048,0.011,0.071,0.019    c0.024,0.008,0.046,0.018,0.068,0.029c0.012,0.006,0.026,0.009,0.038,0.015c0.007,0.004,0.012,0.009,0.017,0.012    c0.023,0.013,0.043,0.028,0.063,0.044c0.016,0.012,0.034,0.023,0.048,0.038c0.017,0.014,0.032,0.031,0.048,0.049    c0.015,0.016,0.031,0.031,0.044,0.05c0.013,0.017,0.025,0.035,0.035,0.054c0.012,0.02,0.025,0.038,0.034,0.058    c0.01,0.02,0.018,0.042,0.025,0.063c0.007,0.02,0.016,0.039,0.021,0.06c0.006,0.022,0.009,0.044,0.013,0.067    c0.005,0.022,0.008,0.043,0.01,0.066c0.001,0.019,0,0.041,0.001,0.062c-0.001,0.025-0.002,0.05-0.006,0.076    c0,0.007,0.001,0.014-0.001,0.021c-0.003,0.015-0.008,0.03-0.011,0.045c-0.005,0.021-0.01,0.04-0.016,0.06    c-0.009,0.027-0.021,0.052-0.033,0.077c-0.005,0.011-0.008,0.023-0.014,0.034l-1.948,3.603c-0.125,0.231-0.37,0.37-0.63,0.36    c-0.019-0.001-0.037-0.001-0.055-0.005c-0.281-0.032-0.512-0.232-0.585-0.505l-1.098-4.102c0,0,0-0.003-0.001-0.004    c-0.006-0.028-0.009-0.055-0.013-0.083c-0.002-0.018-0.007-0.036-0.008-0.054c-0.001-0.018,0.003-0.037,0.002-0.055    c0.001-0.029,0.002-0.056,0.006-0.084l0-0.007c0.002-0.015,0.008-0.029,0.013-0.044c0.005-0.027,0.012-0.055,0.021-0.08    c0.008-0.021,0.018-0.039,0.027-0.058c0.01-0.02,0.018-0.042,0.03-0.061c0.012-0.019,0.026-0.038,0.039-0.055    c0.013-0.017,0.026-0.035,0.041-0.052c0.014-0.016,0.031-0.029,0.047-0.044c0.017-0.016,0.033-0.032,0.051-0.045    c0.018-0.013,0.037-0.023,0.055-0.035c0.02-0.012,0.038-0.025,0.059-0.034c0.024-0.012,0.049-0.02,0.074-0.029    c0.015-0.005,0.029-0.013,0.045-0.016c0.003-0.001,0.006-0.001,0.008-0.001c0.025-0.007,0.051-0.009,0.078-0.014    c0.019-0.002,0.039-0.007,0.058-0.007c0.018-0.001,0.034,0.001,0.052,0.002c0.029,0.001,0.058,0.001,0.087,0.005    c0.001,0.001,0.004,0,0.007,0.002l0.766,0.124c0.013-0.079,0.025-0.159,0.038-0.24c0.091-0.556,0.176-1.145,0.283-1.75    c0.123-0.603,0.241-1.228,0.375-1.861c0.154-0.628,0.296-1.269,0.465-1.905c0.016-0.057,0.032-0.113,0.047-0.17    c-0.983-0.128-1.955-0.255-2.908-0.379c-3.414-0.443-6.601-0.859-9.332-1.214c-0.841-0.109-1.637-0.214-2.386-0.311    c-0.048,0.157-0.097,0.313-0.145,0.47c-0.182,0.609-0.338,1.225-0.507,1.828c-0.148,0.609-0.281,1.21-0.417,1.791    c-0.123,0.584-0.223,1.152-0.326,1.69c-0.015,0.081-0.031,0.159-0.046,0.238l0.821,0.121c0.016,0.002,0.031,0.008,0.048,0.011    c0.021,0.005,0.041,0.008,0.061,0.016c0.029,0.008,0.054,0.02,0.08,0.033c0.011,0.005,0.023,0.008,0.034,0.014    c0.003,0.002,0.004,0.003,0.007,0.004c0.032,0.018,0.062,0.038,0.09,0.06c0.007,0.006,0.015,0.01,0.021,0.015    c0.032,0.027,0.063,0.059,0.09,0.091c0.009,0.011,0.016,0.025,0.025,0.037c0.016,0.023,0.033,0.045,0.046,0.071    c0.009,0.014,0.014,0.029,0.02,0.045c0.011,0.024,0.023,0.049,0.03,0.074c0.006,0.017,0.008,0.033,0.013,0.05    c0.006,0.025,0.012,0.049,0.015,0.075c0.002,0.019,0.001,0.039,0.003,0.059c0.001,0.017,0.003,0.033,0.002,0.051    c0,0.008-0.002,0.016-0.002,0.025c0,0.008-0.002,0.016-0.002,0.025c0,0.008-0.001,0.016-0.002,0.026    c-0.002,0.016-0.008,0.031-0.011,0.048c-0.005,0.021-0.008,0.041-0.016,0.061c-0.008,0.027-0.02,0.054-0.032,0.08    c-0.006,0.011-0.009,0.023-0.015,0.034l-1.95,3.653c-0.124,0.232-0.37,0.372-0.632,0.363c-0.018-0.001-0.036-0.001-0.054-0.003    c-0.281-0.032-0.513-0.234-0.586-0.506l-1.096-4.099c-0.004-0.011-0.003-0.021-0.006-0.032c-0.006-0.025-0.01-0.051-0.012-0.078    c-0.002-0.021-0.004-0.04-0.003-0.059c-0.001-0.011-0.003-0.022-0.003-0.035c0.001-0.021,0.004-0.041,0.006-0.062l0-0.011    c0-0.001,0-0.003,0-0.003c0.002-0.009,0.006-0.019,0.008-0.03c0.007-0.033,0.013-0.067,0.026-0.098    c0.006-0.022,0.017-0.039,0.026-0.06c0.01-0.02,0.018-0.042,0.03-0.061c0.012-0.02,0.026-0.038,0.039-0.055    c0.013-0.017,0.025-0.036,0.04-0.054c0.013-0.015,0.029-0.028,0.044-0.043c0.017-0.016,0.034-0.033,0.053-0.048    c0.018-0.013,0.037-0.023,0.055-0.035c0.02-0.012,0.038-0.025,0.059-0.035c0.029-0.014,0.062-0.025,0.094-0.035    c0.011-0.004,0.02-0.009,0.031-0.011c0,0,0,0,0.001,0c0.038-0.011,0.076-0.015,0.115-0.019c0.007-0.001,0.014-0.002,0.021-0.003    l0.021,0.001c0.04-0.001,0.08,0,0.118,0.006h0.001l0.774,0.114c0.013-0.086,0.027-0.173,0.041-0.26    c0.091-0.556,0.174-1.145,0.283-1.752c0.123-0.603,0.241-1.227,0.375-1.86c0.154-0.628,0.296-1.27,0.465-1.905    c0.022-0.082,0.045-0.162,0.067-0.243c-1.777-0.232-3.163-0.412-4.03-0.525c-2.195,5.335-2.537,11.518-2.59,13.336l28.804,3.751    c0.224-2.469,0.444-4.77,0.627-6.78C55.86,47.209,56.025,45.27,56.12,43.916z"></path><path fill="none" d="M53.795,83.901c-0.168-2.369-0.183-5.122-0.104-8.061c0.079-2.94,0.254-6.065,0.473-9.186    c0.195-2.772,0.426-5.539,0.659-8.168c-0.147,0.106-0.304,0.223-0.473,0.351c-0.517,0.392-1.132,0.883-1.801,1.482    c-0.335,0.301-0.684,0.627-1.036,0.984c-0.353,0.355-0.71,0.741-1.059,1.161c-0.697,0.833-1.374,1.807-1.818,2.912    c-0.217,0.553-0.37,1.137-0.404,1.729L48.22,67.33l-0.008,0.263c-0.005,0.172-0.01,0.345-0.016,0.52    c-0.01,0.348-0.02,0.701-0.03,1.056c-0.021,0.709-0.041,1.431-0.063,2.161c-0.005,0.183-0.011,0.366-0.016,0.551l-0.009,0.289    l-0.013,0.283c-0.018,0.386-0.046,0.774-0.108,1.182c-0.063,0.405-0.159,0.84-0.383,1.285c-0.113,0.221-0.271,0.439-0.46,0.625    c-0.19,0.187-0.411,0.342-0.634,0.449c-0.448,0.221-0.886,0.311-1.3,0.371c-0.078,0.01-0.154,0.018-0.23,0.026l-0.36,9.813    c-0.021,0.57,0.001,2.517,1.167,3.677c0.351,0.35,0.785,0.599,1.298,0.75c0.479,0.059,0.954,0.099,1.415,0.115    c2.329,0.085,4.219-0.377,6.219-0.866c0.065-0.017,0.131-0.032,0.195-0.048c-0.024-0.059-0.048-0.117-0.072-0.179    C54.285,88.259,53.957,86.27,53.795,83.901z"></path><path fill="none" d="M62.872,75.611c0.079-1.249,0.152-2.429,0.19-3.452c0.243-6.632,1.039-8.753,6.537-12.145    c1.535-0.947,3.451-1.764,4.719-2.304c0.301-0.128,0.564-0.24,0.771-0.333c2.041-0.91,3.713-0.339,4.757,0.301    c0.519,0.318,0.976,0.707,1.371,1.133c-0.618-8.992-1.821-19.242-3.415-25.337c-2.309-8.836-3.615-11.514-5.747-12.638    c-0.085,0.019-0.171,0.04-0.26,0.069c-0.637,0.196-1.401,0.664-2.168,1.382c-0.771,0.713-1.553,1.657-2.319,2.757    c-0.766,1.102-1.519,2.362-2.244,3.738c-0.727,1.374-1.426,2.866-2.078,4.436c-0.325,0.784-0.638,1.59-0.927,2.41    c-0.143,0.409-0.281,0.827-0.402,1.235l-0.09,0.314l-0.103,0.339c-0.07,0.227-0.132,0.455-0.223,0.679    c-0.326,0.9-0.774,1.798-1.444,2.584c-0.158,0.202-0.354,0.377-0.541,0.557c-0.093,0.093-0.204,0.166-0.307,0.249    c-0.105,0.08-0.206,0.165-0.321,0.231l-0.341,0.207c-0.118,0.062-0.238,0.117-0.359,0.173c-0.06,0.027-0.119,0.059-0.182,0.081    l-0.148,0.051l-0.003,0.084c-0.016,0.374-0.046,0.914-0.09,1.6c-0.089,1.37-0.244,3.32-0.447,5.654    c-0.404,4.668-0.987,10.879-1.393,17.093c-0.203,3.106-0.36,6.213-0.424,9.121c-0.062,2.906-0.032,5.617,0.143,7.908    c0.085,1.144,0.207,2.183,0.368,3.079c0.113,0.634,0.254,1.267,0.457,1.879c0.179,0.537,0.349,0.827,0.83,1.138    c0.32,0.207,0.619,0.454,0.946,0.657c0.651,0.407,1.338,0.754,2.052,1.037c1.453,0.575,3.004,0.873,4.563,0.931    c0.16,0.006,0.321,0.006,0.482,0.008c-0.052-0.045-0.106-0.087-0.156-0.134C61.991,89.638,62.479,81.86,62.872,75.611z"></path><path fill="none" d="M24.652,87.715c-1.833-0.239-3.182-0.597-3.669-2.569C21.47,87.119,22.819,87.477,24.652,87.715l19.641,2.558    l0-0.001L24.652,87.715z"></path><path d="M80.201,32.847c-2.657-10.166-4.189-13.539-8.601-14.845c-1.689-0.5-9.34-1.778-9.34-1.778l-0.608-0.088    c0.281-2.157,0.623-6.891-1.305-9.423c-0.758-0.996-1.813-1.579-3.049-1.688c-2.309-0.202-4.009,0.739-5.055,2.796    c-0.833,1.638-1.203,3.819-1.633,6.344c-0.021,0.121-0.043,0.249-0.064,0.372l-0.285-0.041c0,0-2.524-0.336-3.5-0.463    c-0.788-0.103-1.562-0.169-2.296-0.196c-7.545-0.277-11.24,3.484-14.109,7.589c-3.222,4.607-5.333,9.951-6.162,13.128    c-0.439,1.681-0.011,2.82,0.426,3.479c0.415,0.626,0.968,1.04,1.481,1.311c-1.949,5.328-2.299,10.97-2.362,12.992    c-1.244,0.662-3.79,2.111-4.957,3.451l-0.16,0.182C17.072,57.74,16.109,59.17,15.859,66c-0.11,2.998,0.35,5.215,1.369,6.59    c0.46,0.619,0.961,0.984,1.411,1.199l-0.321,8.764c-0.22,5.995,2.918,7.216,6.015,7.619l22.273,2.9    c0.598,0.078,1.194,0.129,1.773,0.15c2.673,0.098,4.821-0.428,6.899-0.936c0.207-0.05,0.416-0.102,0.626-0.152    c2.497,1.775,5.39,2.735,8.605,2.853c3.617,0.131,7.642-0.796,11.963-2.759c6.76-3.072,7.106-9.343,7.507-16.604    c0.029-0.542,0.059-1.093,0.094-1.653C84.554,65.902,82.943,43.344,80.201,32.847z M53.053,14.582    c0.905-5.321,1.487-7.309,4.028-7.087c0.544,0.048,0.955,0.276,1.293,0.719c1.259,1.651,1.093,5.422,0.822,7.569l-6.197-0.892    C53.017,14.79,53.036,14.683,53.053,14.582z M26.591,35.182c0.777-2.978,2.762-7.995,5.795-12.334    c2.933-4.196,5.961-6.753,11.987-6.532c0.659,0.024,1.354,0.084,2.068,0.176c11.608,1.511,20.26,2.859,23.662,3.678    c-0.485,0.294-0.964,0.662-1.427,1.091c-0.878,0.805-1.717,1.819-2.531,2.975c-0.811,1.158-1.596,2.463-2.351,3.878    c-0.753,1.415-1.477,2.938-2.153,4.547c-0.337,0.805-0.662,1.632-0.966,2.483c-0.151,0.428-0.296,0.856-0.431,1.31l-0.098,0.334    l-0.094,0.302c-0.064,0.202-0.12,0.408-0.201,0.599c-0.288,0.787-0.673,1.529-1.185,2.121c-0.504,0.601-1.149,1.009-1.878,1.207    c-0.363,0.101-0.76,0.133-1.147,0.14l-0.281-0.009c-0.041,0.001-0.1-0.005-0.158-0.011l-0.17-0.017l-0.172-0.017L54.842,41.1    l-0.038-0.004l-0.085-0.013l-0.34-0.045c-0.906-0.121-1.81-0.243-2.705-0.364c-0.138-0.019-0.276-0.036-0.413-0.055    c0.094-0.271,0.188-0.54,0.282-0.807c0.1-0.288,0.216-0.567,0.322-0.845c0.208-0.557,0.438-1.082,0.649-1.583    c0.103-0.252,0.22-0.489,0.323-0.722c0.108-0.232,0.204-0.46,0.311-0.669c0.067-0.138,0.131-0.271,0.195-0.399    c1.034,0.176,1.459-0.386,2.311-2.184c0.996-2.1-0.106-2.34-1.828-2.682c-1.722-0.341-2.341,1.278-2.612,2.034    c-0.572,1.59-0.342,2.037,0.322,2.306c-0.022,0.049-0.045,0.096-0.067,0.145c-0.107,0.225-0.202,0.465-0.308,0.709    c-0.103,0.247-0.219,0.499-0.317,0.764c-0.205,0.53-0.428,1.085-0.626,1.67c-0.1,0.291-0.213,0.586-0.308,0.888    c-0.096,0.302-0.193,0.609-0.291,0.918c-0.023,0.075-0.047,0.151-0.07,0.226c-1.061-0.142-2.109-0.283-3.133-0.421    c-3.412-0.459-6.597-0.888-9.327-1.254c-0.729-0.098-1.426-0.193-2.085-0.28c0.078-0.224,0.157-0.449,0.234-0.669    c0.1-0.288,0.216-0.568,0.322-0.845c0.208-0.557,0.436-1.082,0.649-1.583c0.103-0.252,0.219-0.489,0.323-0.722    c0.108-0.232,0.204-0.46,0.311-0.669c0.078-0.16,0.152-0.313,0.226-0.462c1.042,0.18,1.466-0.38,2.318-2.187    c0.99-2.103-0.111-2.341-1.835-2.678c-1.722-0.339-2.337,1.282-2.608,2.04c-0.564,1.58-0.339,2.032,0.314,2.3    c-0.031,0.068-0.061,0.135-0.094,0.206c-0.107,0.225-0.202,0.464-0.308,0.709c-0.104,0.247-0.219,0.498-0.317,0.764    c-0.205,0.528-0.428,1.084-0.626,1.67c-0.102,0.291-0.213,0.585-0.308,0.888c-0.096,0.302-0.193,0.609-0.291,0.918    c-0.009,0.03-0.017,0.059-0.027,0.089c-2.48-0.335-4.236-0.57-4.945-0.666c-0.816-0.169-1.28-0.307-1.652-0.869    C26.456,36.32,26.424,35.822,26.591,35.182z M19.635,71.52c-0.55-0.36-1.438-1.667-1.3-5.429c0.231-6.296,0.994-7.167,2.15-8.486    l0.165-0.188c0.987-1.133,3.846-2.7,4.867-3.208c0.146-0.073,0.536-0.272,0.536-0.272l27.74,3.611    c-0.086,0.066-0.176,0.133-0.268,0.204c-0.537,0.411-1.178,0.928-1.879,1.564c-0.702,0.634-1.462,1.39-2.222,2.292    c-0.379,0.452-0.757,0.941-1.106,1.486c-0.348,0.542-0.675,1.135-0.936,1.791c-0.261,0.653-0.454,1.375-0.5,2.143    c-0.005,0.096-0.01,0.193-0.015,0.29l-0.008,0.255c-0.006,0.172-0.011,0.345-0.016,0.52c-0.011,0.348-0.022,0.7-0.033,1.055    c-0.022,0.709-0.044,1.431-0.067,2.161c-0.007,0.183-0.012,0.366-0.017,0.55l-0.01,0.261l-0.013,0.27    c-0.018,0.352-0.045,0.706-0.096,1.037c-0.049,0.33-0.131,0.635-0.248,0.862c-0.121,0.226-0.263,0.366-0.496,0.483    c-0.23,0.114-0.542,0.19-0.874,0.235c-0.335,0.046-0.693,0.064-1.055,0.073c-0.363,0.007-0.733,0.002-1.103-0.006l-0.559-0.016    l-0.14-0.006l-0.122-0.009l-0.282-0.023c-0.751-0.061-1.501-0.12-2.243-0.18c-0.732-0.086-1.458-0.171-2.176-0.255    c-0.359-0.042-0.715-0.084-1.069-0.126c-0.356-0.049-0.71-0.096-1.061-0.145c-0.702-0.095-1.391-0.189-2.066-0.281    c-0.676-0.088-1.334-0.202-1.977-0.297c-1.284-0.196-2.498-0.382-3.616-0.568c-0.56-0.091-1.097-0.178-1.607-0.26    c-0.511-0.082-0.992-0.171-1.447-0.249c-0.908-0.159-1.7-0.298-2.352-0.413C21.623,72.158,19.992,71.755,19.635,71.52z     M42.801,76.449l-0.264-0.008L42.801,76.449c0.254,0.005,0.511,0.007,0.768,0.006l-0.356,9.698    c-0.013,0.343-0.004,1.095,0.178,1.951c-0.182-0.856-0.191-1.607-0.178-1.951l0.356-9.698    C43.311,76.456,43.055,76.454,42.801,76.449z M41.003,76.352c-0.538-0.038-1.076-0.077-1.609-0.115    c-0.75-0.081-1.493-0.161-2.228-0.24c-0.367-0.04-0.732-0.079-1.095-0.119c-0.234-0.03-0.465-0.059-0.697-0.089    c0.232,0.03,0.463,0.059,0.696,0.089c0.362,0.039,0.727,0.079,1.095,0.119c0.734,0.079,1.478,0.16,2.227,0.24    C39.927,76.275,40.465,76.314,41.003,76.352z M33.596,75.562c-0.912-0.117-1.807-0.234-2.661-0.357    c-0.931-0.129-1.81-0.254-2.658-0.377c0.849,0.123,1.727,0.247,2.658,0.376C31.788,75.328,32.684,75.445,33.596,75.562z     M23.019,74.038c-0.074-0.011-0.14-0.022-0.212-0.033C22.879,74.017,22.946,74.027,23.019,74.038z M24.653,87.715    c-1.833-0.239-3.182-0.597-3.67-2.569C21.47,87.118,22.82,87.477,24.653,87.715l19.64,2.557l0,0.001L24.653,87.715z M54.689,89.88    c-2,0.489-3.89,0.951-6.219,0.866c-0.461-0.017-0.936-0.056-1.415-0.115c-0.513-0.151-0.947-0.4-1.298-0.75    c-1.166-1.16-1.188-3.107-1.167-3.677l0.36-9.813c0.076-0.008,0.152-0.017,0.23-0.026c0.414-0.061,0.853-0.151,1.3-0.371    c0.223-0.108,0.444-0.262,0.634-0.449c0.189-0.186,0.347-0.405,0.46-0.625c0.224-0.445,0.32-0.88,0.383-1.285    c0.062-0.408,0.09-0.796,0.108-1.182l0.013-0.283l0.009-0.289c0.005-0.184,0.011-0.368,0.016-0.551    c0.021-0.729,0.042-1.452,0.063-2.161c0.01-0.355,0.02-0.707,0.03-1.056c0.006-0.175,0.011-0.348,0.016-0.52l0.008-0.263    l0.011-0.223c0.034-0.593,0.186-1.177,0.404-1.729c0.444-1.105,1.12-2.079,1.818-2.912c0.349-0.42,0.706-0.806,1.059-1.161    c0.352-0.358,0.701-0.684,1.036-0.984c0.67-0.599,1.284-1.091,1.801-1.482c0.169-0.128,0.326-0.244,0.473-0.351    c-0.233,2.628-0.464,5.396-0.659,8.168c-0.219,3.121-0.394,6.246-0.473,9.186c-0.079,2.938-0.064,5.692,0.104,8.061    c0.162,2.369,0.49,4.358,1.017,5.752c0.024,0.061,0.048,0.12,0.072,0.179C54.819,89.848,54.754,89.863,54.689,89.88z     M26.214,52.568c0.053-1.818,0.395-8.001,2.59-13.336c0.867,0.113,2.253,0.293,4.03,0.525c-0.022,0.08-0.044,0.161-0.067,0.243    c-0.169,0.634-0.311,1.277-0.465,1.905c-0.135,0.633-0.253,1.257-0.375,1.86c-0.109,0.606-0.193,1.196-0.283,1.752    c-0.014,0.088-0.028,0.174-0.041,0.26l-0.774-0.114h-0.001c-0.038-0.006-0.078-0.007-0.118-0.006l-0.021-0.001    c-0.007,0.001-0.014,0.002-0.021,0.003c-0.039,0.004-0.077,0.008-0.115,0.019c-0.001,0-0.001,0-0.001,0    c-0.011,0.002-0.02,0.008-0.031,0.011c-0.032,0.01-0.064,0.021-0.094,0.035c-0.021,0.01-0.039,0.023-0.059,0.035    c-0.018,0.012-0.037,0.022-0.055,0.035c-0.018,0.014-0.036,0.032-0.053,0.048c-0.016,0.015-0.031,0.028-0.044,0.043    c-0.016,0.017-0.027,0.036-0.04,0.054c-0.013,0.017-0.027,0.035-0.039,0.055c-0.012,0.019-0.019,0.041-0.03,0.061    c-0.009,0.02-0.019,0.038-0.026,0.06c-0.012,0.031-0.019,0.065-0.026,0.098c-0.002,0.011-0.006,0.02-0.008,0.03    c0,0,0,0.001,0,0.003l0,0.011c-0.002,0.021-0.006,0.041-0.006,0.062c0,0.012,0.002,0.023,0.003,0.035    c-0.001,0.019,0.001,0.039,0.003,0.059c0.002,0.026,0.006,0.053,0.012,0.078c0.002,0.011,0.002,0.021,0.006,0.032l1.096,4.099    c0.073,0.273,0.305,0.474,0.586,0.506c0.018,0.002,0.036,0.003,0.054,0.003c0.261,0.01,0.508-0.13,0.632-0.363l1.95-3.653    c0.006-0.011,0.009-0.023,0.015-0.034c0.012-0.026,0.024-0.053,0.032-0.08c0.008-0.02,0.011-0.041,0.016-0.061    c0.003-0.016,0.009-0.031,0.011-0.048c0.002-0.01,0.002-0.018,0.002-0.026c0-0.008,0.002-0.016,0.002-0.025    c0-0.008,0.002-0.016,0.002-0.025c0.001-0.018-0.002-0.034-0.002-0.051c-0.002-0.021-0.001-0.04-0.003-0.059    c-0.003-0.026-0.009-0.05-0.015-0.075c-0.005-0.017-0.007-0.033-0.013-0.05c-0.007-0.025-0.019-0.05-0.03-0.074    c-0.006-0.015-0.011-0.031-0.02-0.045c-0.013-0.025-0.03-0.048-0.046-0.071c-0.009-0.011-0.016-0.025-0.025-0.037    c-0.028-0.033-0.058-0.064-0.09-0.091c-0.007-0.004-0.015-0.009-0.021-0.015c-0.028-0.022-0.058-0.042-0.09-0.06    c-0.003-0.002-0.004-0.003-0.007-0.004c-0.011-0.006-0.023-0.009-0.034-0.014c-0.026-0.013-0.052-0.025-0.08-0.033    c-0.02-0.008-0.041-0.011-0.061-0.016c-0.016-0.003-0.031-0.009-0.048-0.011l-0.821-0.121c0.015-0.079,0.03-0.157,0.046-0.238    c0.104-0.538,0.203-1.106,0.326-1.69c0.136-0.581,0.269-1.182,0.417-1.791c0.168-0.603,0.324-1.218,0.507-1.828    c0.048-0.157,0.097-0.313,0.145-0.47c0.749,0.096,1.545,0.201,2.386,0.311c2.731,0.355,5.918,0.771,9.332,1.214    c0.953,0.124,1.925,0.251,2.908,0.379c-0.016,0.057-0.032,0.113-0.047,0.17c-0.169,0.636-0.311,1.277-0.465,1.905    c-0.135,0.633-0.253,1.258-0.375,1.861c-0.108,0.605-0.193,1.194-0.283,1.75c-0.013,0.081-0.025,0.16-0.038,0.24l-0.766-0.124    c-0.003-0.002-0.005,0-0.007-0.002c-0.029-0.004-0.058-0.003-0.087-0.005c-0.018-0.001-0.034-0.003-0.052-0.002    c-0.019,0.001-0.039,0.005-0.058,0.007c-0.026,0.005-0.053,0.006-0.078,0.014c-0.003,0-0.005,0-0.008,0.001    c-0.015,0.004-0.029,0.011-0.045,0.016c-0.025,0.009-0.05,0.018-0.074,0.029c-0.021,0.009-0.039,0.022-0.059,0.034    c-0.018,0.012-0.037,0.022-0.055,0.035c-0.018,0.013-0.034,0.029-0.051,0.045c-0.016,0.015-0.033,0.028-0.047,0.044    c-0.014,0.017-0.028,0.035-0.041,0.052c-0.013,0.017-0.027,0.036-0.039,0.055c-0.012,0.019-0.019,0.041-0.03,0.061    c-0.009,0.019-0.019,0.038-0.027,0.058c-0.009,0.026-0.016,0.053-0.021,0.08c-0.005,0.015-0.011,0.029-0.013,0.044l0,0.007    c-0.004,0.027-0.005,0.055-0.006,0.084c0.001,0.018-0.003,0.037-0.002,0.055c0.001,0.018,0.006,0.036,0.008,0.054    c0.005,0.028,0.008,0.055,0.013,0.083c0.001,0.001,0.001,0.004,0.001,0.004l1.098,4.102c0.073,0.273,0.304,0.473,0.585,0.505    c0.018,0.003,0.036,0.004,0.055,0.005c0.26,0.01,0.505-0.129,0.63-0.36l1.948-3.603c0.006-0.011,0.009-0.023,0.014-0.034    c0.012-0.026,0.024-0.05,0.033-0.077c0.006-0.02,0.011-0.04,0.016-0.06c0.003-0.015,0.008-0.03,0.011-0.045    c0.002-0.007,0-0.014,0.001-0.021c0.004-0.026,0.005-0.051,0.006-0.076c-0.001-0.021,0-0.043-0.001-0.062    c-0.002-0.024-0.005-0.044-0.01-0.066c-0.003-0.022-0.007-0.044-0.013-0.067c-0.005-0.021-0.014-0.04-0.021-0.06    c-0.008-0.021-0.015-0.043-0.025-0.063c-0.009-0.02-0.022-0.038-0.034-0.058c-0.01-0.018-0.022-0.037-0.035-0.054    c-0.013-0.018-0.029-0.034-0.044-0.05c-0.016-0.017-0.03-0.034-0.048-0.049c-0.015-0.014-0.032-0.026-0.048-0.038    c-0.02-0.016-0.04-0.03-0.063-0.044c-0.005-0.003-0.011-0.007-0.017-0.012c-0.012-0.006-0.026-0.009-0.038-0.015    c-0.022-0.01-0.043-0.021-0.068-0.029c-0.023-0.008-0.046-0.014-0.071-0.019c-0.014-0.003-0.026-0.008-0.039-0.011l-0.83-0.135    c0.015-0.079,0.031-0.159,0.046-0.241c0.104-0.538,0.203-1.106,0.326-1.689c0.136-0.581,0.269-1.182,0.418-1.789    c0.167-0.604,0.323-1.22,0.505-1.829c0.041-0.132,0.083-0.266,0.123-0.398c0.232,0.029,0.462,0.06,0.695,0.09    c0.897,0.117,1.799,0.234,2.707,0.351l0.34,0.046l0.085,0.01l0.042,0.006l0.066,0.008l0.17,0.016l0.172,0.017    c0.056,0.005,0.113,0.011,0.181,0.012l0.398,0.012c0.132,0.003,0.258-0.01,0.388-0.015l0.175-0.009    c-0.018,0.333-0.044,0.763-0.08,1.277c-0.095,1.354-0.26,3.293-0.475,5.623c-0.184,2.01-0.403,4.311-0.627,6.78L26.214,52.568z     M64.6,92.511c-1.559-0.057-3.11-0.355-4.563-0.931c-0.714-0.282-1.401-0.63-2.052-1.037c-0.327-0.203-0.625-0.45-0.946-0.657    c-0.482-0.311-0.652-0.601-0.83-1.138c-0.203-0.612-0.344-1.246-0.457-1.879c-0.161-0.896-0.283-1.935-0.368-3.079    c-0.175-2.291-0.205-5.002-0.143-7.908c0.064-2.909,0.221-6.015,0.424-9.121c0.406-6.214,0.989-12.425,1.393-17.093    c0.203-2.335,0.358-4.284,0.447-5.654c0.044-0.686,0.074-1.226,0.09-1.6l0.003-0.084l0.148-0.051    c0.063-0.022,0.122-0.055,0.182-0.081c0.121-0.056,0.241-0.111,0.359-0.173l0.341-0.207c0.115-0.066,0.216-0.151,0.321-0.231    c0.102-0.083,0.214-0.156,0.307-0.249c0.187-0.18,0.384-0.355,0.541-0.557c0.669-0.786,1.117-1.684,1.444-2.584    c0.091-0.224,0.153-0.452,0.223-0.679l0.103-0.339l0.09-0.314c0.121-0.408,0.259-0.825,0.402-1.235    c0.289-0.82,0.602-1.626,0.927-2.41c0.651-1.57,1.351-3.061,2.078-4.436c0.724-1.376,1.477-2.636,2.244-3.738    c0.766-1.1,1.548-2.044,2.319-2.757c0.768-0.719,1.531-1.187,2.168-1.382c0.089-0.029,0.175-0.05,0.26-0.069    c2.133,1.124,3.438,3.802,5.747,12.638c1.594,6.096,2.797,16.346,3.415,25.337c-0.395-0.426-0.852-0.815-1.371-1.133    c-1.044-0.64-2.716-1.211-4.757-0.301c-0.207,0.093-0.47,0.205-0.771,0.333c-1.268,0.54-3.184,1.357-4.719,2.304    c-5.499,3.392-6.294,5.513-6.537,12.145c-0.038,1.024-0.111,2.203-0.19,3.452c-0.393,6.249-0.881,14.027,2.054,16.774    c0.051,0.047,0.104,0.089,0.156,0.134C64.921,92.518,64.759,92.517,64.6,92.511z M68.041,91.997    c-0.896,0.116-1.606-0.086-2.175-0.617c-2.46-2.304-1.974-10.036-1.62-15.683c0.079-1.259,0.153-2.447,0.191-3.488    c0.225-6.132,0.795-7.884,5.885-11.024c1.448-0.892,3.306-1.685,4.537-2.209c0.309-0.132,0.578-0.247,0.792-0.343    c1.199-0.535,2.369-0.461,3.476,0.218c0.542,0.331,1.021,0.792,1.407,1.293c-1.54-0.203-3.7,0.586-6.667,2.416    c-5.5,3.393-6.294,5.514-6.538,12.146c-0.041,1.119-0.125,2.366-0.212,3.687c-0.345,5.166-0.731,10.951,1.079,13.602    C68.146,91.991,68.093,91.991,68.041,91.997z M81.598,73.823c-0.033,0.564-0.064,1.119-0.094,1.665    c-0.386,6.986-0.663,12.033-6.057,14.484c-1.876,0.853-3.679,1.489-5.402,1.915c-0.1-0.052-0.196-0.115-0.285-0.188    c-2.04-1.666-1.612-8.069-1.269-13.213c0.089-1.332,0.173-2.589,0.215-3.728c0.225-6.132,0.793-7.884,5.885-11.024    c3.885-2.397,5.562-2.447,6.286-2.068c0.226,0.119,0.409,0.313,0.552,0.584C81.687,67.033,81.755,71.206,81.598,73.823z"></path><path d="M31.016,71.188l2.075,0.297c0.534,0.076,1.016-0.327,1.036-0.866l0.096-2.624c0.017-0.464-0.319-0.866-0.779-0.932    l-2.075-0.297c-0.534-0.076-1.016,0.327-1.036,0.866l-0.096,2.624C30.22,70.72,30.556,71.122,31.016,71.188z"></path></g></g></svg>