<svg height='100px' width='100px'  fill="#ffffff" xmlns="http://www.w3.org/2000/svg" viewBox="0 0 100 100" x="0px" y="0px"><title>132all</title><path d="M76,7.77H24a11,11,0,0,0-11,11V81.23a11,11,0,0,0,11,11H76a11,11,0,0,0,11-11V18.77A11,11,0,0,0,76,7.77Zm5,73.46a5,5,0,0,1-5,5H24a5,5,0,0,1-5-5V18.77a5,5,0,0,1,5-5H76a5,5,0,0,1,5,5Z"></path><path d="M32.35,47.5H27.4a3,3,0,1,0,0,6h4.95a3,3,0,0,0,0-6Z"></path><path d="M72.6,47.5H43.29a3,3,0,0,0,0,6H72.6a3,3,0,0,0,0-6Z"></path><path d="M32.35,29.5H27.4a3,3,0,1,0,0,6h4.95a3,3,0,0,0,0-6Z"></path><path d="M72.6,29.5H43.29a3,3,0,0,0,0,6H72.6a3,3,0,0,0,0-6Z"></path><path d="M32.35,65.5H27.4a3,3,0,1,0,0,6h4.95a3,3,0,0,0,0-6Z"></path><path d="M72.6,65.5H43.29a3,3,0,0,0,0,6H72.6a3,3,0,0,0,0-6Z"></path></svg>