<svg height='100px' width='100px'  fill="#ffffff" xmlns:dc="http://purl.org/dc/elements/1.1/" xmlns:cc="http://creativecommons.org/ns#" xmlns:rdf="http://www.w3.org/1999/02/22-rdf-syntax-ns#" xmlns:svg="http://www.w3.org/2000/svg" xmlns="http://www.w3.org/2000/svg" xmlns:sodipodi="http://sodipodi.sourceforge.net/DTD/sodipodi-0.dtd" xmlns:inkscape="http://www.inkscape.org/namespaces/inkscape" viewBox="0 0 6.3499999 6.3500002" version="1.1" x="0px" y="0px"><g transform="translate(0,-290.64999)"><path style="color:#000000;font-style:normal;font-variant:normal;font-weight:normal;font-stretch:normal;font-size:medium;line-height:normal;font-family:sans-serif;font-variant-ligatures:normal;font-variant-position:normal;font-variant-caps:normal;font-variant-numeric:normal;font-variant-alternates:normal;font-feature-settings:normal;text-indent:0;text-align:start;text-decoration:none;text-decoration-line:none;text-decoration-style:solid;text-decoration-color:#000000;letter-spacing:normal;word-spacing:normal;text-transform:none;writing-mode:lr-tb;direction:ltr;text-orientation:mixed;dominant-baseline:auto;baseline-shift:baseline;text-anchor:start;shape-padding:0;clip-rule:nonzero;display:inline;overflow:visible;visibility:visible;opacity:1;isolation:auto;mix-blend-mode:normal;color-interpolation:sRGB;color-interpolation-filters:linearRGB;solid-color:#000000;solid-opacity:1;vector-effect:none;fill:#ffffff;fill-opacity:1;fill-rule:evenodd;stroke:none;stroke-width:2;stroke-linecap:round;stroke-linejoin:round;stroke-miterlimit:4;stroke-dasharray:none;stroke-dashoffset:0;stroke-opacity:1;paint-order:stroke fill markers;color-rendering:auto;image-rendering:auto;shape-rendering:auto;text-rendering:auto;enable-background:accumulate" d="M 12 4.9980469 A 3.0000002 3.0000002 0 0 0 9 7.9980469 A 3.0000002 3.0000002 0 0 0 12 10.998047 A 3.0000002 3.0000002 0 0 0 15 7.9980469 A 3.0000002 3.0000002 0 0 0 12 4.9980469 z M 5 8.9980469 A 2.0000001 2.0000001 0 0 0 3 10.998047 A 2.0000001 2.0000001 0 0 0 5 12.998047 A 2.0000001 2.0000001 0 0 0 7 10.998047 A 2.0000001 2.0000001 0 0 0 5 8.9980469 z M 19 8.9980469 A 2.0000001 2.0000001 0 0 0 17 10.998047 A 2.0000001 2.0000001 0 0 0 19 12.998047 A 2.0000001 2.0000001 0 0 0 21 10.998047 A 2.0000001 2.0000001 0 0 0 19 8.9980469 z M 10.001953 11.998047 C 8.357269 11.998047 6.9980469 13.351357 6.9980469 14.996094 L 6.9980469 17.994141 C 6.9959228 18.549467 7.4466196 19.000163 8.0019531 18.998047 L 15.996094 18.998047 C 16.551427 19.000163 17.002124 18.549467 17 17.994141 L 17 14.996094 C 17 13.351357 15.64859 11.998047 14.003906 11.998047 L 10.001953 11.998047 z M 4.0019531 14 C 2.3572691 14 0.99609375 15.351395 0.99609375 16.996094 L 0.99609375 17.994141 C 0.99396958 18.549467 1.4446665 19.000163 2 18.998047 L 5.1738281 18.998047 C 5.0584127 18.676031 4.9989615 18.336339 4.9980469 17.994141 L 4.9980469 14.996094 C 4.9980469 14.656314 5.0337238 14.322431 5.1015625 14 L 4.0019531 14 z M 18.898438 14 C 18.966076 14.322394 19.001953 14.656314 19.001953 14.996094 L 19.001953 17.994141 C 19.001041 18.336188 18.941595 18.67588 18.826172 18.998047 L 21.998047 18.998047 C 22.55338 19.000126 23.004077 18.549467 23.001953 17.994141 L 23.001953 16.996094 C 23.001953 15.351395 21.642731 14 19.998047 14 L 18.898438 14 z " transform="matrix(0.26458334,0,0,0.26458334,0,290.64999)"></path></g></svg>