<svg height='100px' width='100px'  fill="#005945" xmlns="http://www.w3.org/2000/svg" viewBox="0 0 32 32" x="0px" y="0px"><title>Artboard 63</title><path d="M12,19a1,1,0,0,1,1,1v5h6V6a1,1,0,0,1,.63-.93L24.81,3H13v9a1,1,0,0,1-2,0V2a1,1,0,0,1,1-1H30a1,1,0,0,1,.34.06l.06,0,.13.07.11.1,0,0a.9.9,0,0,1,.18.28l0,.06A1,1,0,0,1,31,2V26a1,1,0,0,1-.63.93l-10,4A1,1,0,0,1,20,31a1,1,0,0,1-.56-.17A1,1,0,0,1,19,30V27H12a1,1,0,0,1-1-1V20A1,1,0,0,1,12,19Z"></path><path d="M1.08,16.38a.92.92,0,0,1,0-.76,1,1,0,0,1,.21-.33l4-4a1,1,0,0,1,1.42,1.42l-.71.7V15H16a1,1,0,0,1,0,2H6v1.59l.71.7a1,1,0,0,1,0,1.42A1,1,0,0,1,6,21a1,1,0,0,1-.71-.29l-4-4A1,1,0,0,1,1.08,16.38Z"></path></svg>