<svg height='100px' width='100px'  fill="#005945" xmlns:x="http://ns.adobe.com/Extensibility/1.0/" xmlns:i="http://ns.adobe.com/AdobeIllustrator/10.0/" xmlns:graph="http://ns.adobe.com/Graphs/1.0/" xmlns="http://www.w3.org/2000/svg" xmlns:xlink="http://www.w3.org/1999/xlink" version="1.1" x="0px" y="0px" viewBox="0 0 100 100" style="enable-background:new 0 0 100 100;" xml:space="preserve"><g><g i:extraneous="self"><g><path d="M82.9,42.1L50.8,27.1c-0.5-0.2-1.1-0.2-1.6,0L17.1,42.1c-0.7,0.3-1.1,1-1.1,1.7v36.9c0,0.7,0.4,1.4,1.1,1.7l32.2,14.9     c0.5,0.2,1.1,0.2,1.6,0l32.1-14.9c0.7-0.3,1.1-1,1.1-1.7V43.8C84,43,83.6,42.4,82.9,42.1z M47.6,91.4l-27-12.5V47.8l27,12.5V91.4     z M50,56.2L23.9,44.1L50,32l26.1,12.1L50,56.2z M79.3,78.9l-27,12.5V60.3l27-12.5V78.9z"></path><path d="M50,18.3c1.3,0,2.4-1.1,2.4-2.4V4.9c0-1.3-1.1-2.4-2.4-2.4s-2.4,1.1-2.4,2.4v11.1C47.6,17.3,48.7,18.3,50,18.3z"></path><path d="M65.2,22.7c0.4,0.2,0.8,0.4,1.2,0.4c0.8,0,1.6-0.4,2-1.1l5.9-9.4c0.7-1.1,0.4-2.6-0.8-3.3C72.4,8.6,71,8.9,70.3,10     l-5.9,9.4C63.7,20.5,64.1,22,65.2,22.7z"></path><path d="M31.6,21.9c0.4,0.7,1.2,1.1,2,1.1c0.4,0,0.9-0.1,1.2-0.4c1.1-0.7,1.4-2.1,0.8-3.3L29.7,10c-0.7-1.1-2.2-1.4-3.3-0.8     c-1.1,0.7-1.4,2.1-0.8,3.3L31.6,21.9z"></path></g></g></g></svg>