<svg height='50px' width='100px'  fill="#005945" xmlns="http://www.w3.org/2000/svg" xmlns:xlink="http://www.w3.org/1999/xlink" xml:space="preserve" version="1.1" style="shape-rendering:geometricPrecision;text-rendering:geometricPrecision;image-rendering:optimizeQuality;" viewBox="0 0 333 333" x="0px" y="0px" fill-rule="evenodd" clip-rule="evenodd"><defs><style type="text/css">
   
    .fil0 {fill:#005945}
   
  </style></defs><g><path class="fil0" d="M121 95c-30,52 -66,95 -104,140 -1,1 1,3 2,2l30 -35 8 2c12,-15 24,-32 35,-52 10,-18 20,-37 29,-57zm96 36c-29,-9 -60,-26 -91,-45l-1 1 -13 152 25 -4 -11 -147c18,65 62,110 104,159 1,2 4,0 3,-2l-27 -31 86 0 22 22c1,1 3,-1 2,-2 -32,-35 -73,-63 -99,-103zm-158 75l0 31 50 1 12 -136c-8,18 -17,35 -26,52 -12,19 -24,37 -36,52zm82 33l49 2 28 -3c-34,-39 -68,-77 -87,-125l10 126zm89 -2l39 -3 5 -17 -61 0 17 20z"></path></g></svg>