<svg height='100px' width='100px'  fill="#005945" xmlns="http://www.w3.org/2000/svg" xmlns:xlink="http://www.w3.org/1999/xlink" version="1.1" x="0px" y="0px" viewBox="0 0 50.4 50.4" enable-background="new 0 0 50.4 50.4" xml:space="preserve"><g><path d="M38.194,4.086c0,2.258-1.827,4.088-4.087,4.088c-2.256,0-4.084-1.83-4.084-4.088C30.023,1.83,31.852,0,34.107,0   C36.367,0,38.194,1.83,38.194,4.086z"></path><path d="M42.756,21.287l-6.663-2.373l-2.99-8.208c-0.743-1.434-1.938-2.432-3.346-2.691C26.453,7.398,25.3,11.17,25.3,11.17   L22.84,21.507l6.98-4.072l-0.634-1.371c-0.139-0.299-0.008-0.652,0.29-0.787c0.297-0.141,0.65-0.011,0.789,0.289l0.833,1.797   c0.001,0.005,0.005,0.008,0.007,0.011c0.007,0.009,0.007,0.019,0.01,0.029l1.609,3.469l0.161,0.329   c0.095,0.185,0.434,0.532,0.751,0.662l6.471,2.469l-4.133,7.105l-5.419-5.088l1.085-4.983l-1.318-2.847l-7.863,4.587l-3.043,12.777   l-6.442,10.079c-0.238,0.335-0.359,0.735-0.359,1.213c-0.094,0.807,0.121,1.507,0.643,2.105c0.521,0.593,1.19,0.936,1.997,1.034   c1.189,0.092,2.093-0.384,2.71-1.429l6.872-10.785c0.141-0.288,0.331-0.688,0.571-1.219l1.364-5.755l6.352,5.21l-7.507,12.905   c-0.205,0.354-0.085,0.81,0.268,1.017c0.118,0.07,0.245,0.103,0.373,0.103c0.256,0,0.506-0.134,0.644-0.371l6.414-11.028   l-0.009,8.743c0.288,1.38,1.167,2.141,2.641,2.285c0.808,0.048,1.509-0.189,2.104-0.713c0.593-0.528,0.914-1.168,0.96-1.927   c0-0.145,0-0.355,0-0.643l-0.053-10.905c0-0.861-0.199-1.72-0.747-2.266l-1.121-1.059l4.471-7.69   c1.187,0.071,2.041-0.605,2.214-1.779C43.891,22.235,43.373,21.519,42.756,21.287z"></path><path d="M19.716,1.049c-3.231-0.784-6.476,1.201-7.255,4.427L9.842,16.304l8.814,2.19l-0.29,1.167l-8.808-2.188l-0.854,3.529   c-0.628,2.582,0.458,3.834,3.045,4.501c0.378,0.099,4.516,1.052,6.166,1.432l-0.653,2.617c-0.101,0.4,0.144,0.81,0.547,0.91   c0.063,0.016,0.26,0.058,0.322,0.058c0.335-0.003,0.637-0.23,0.722-0.57l5.29-21.646C24.922,5.078,22.942,1.829,19.716,1.049z    M20.1,13.484l-6.405-1.601l1.297-5.373l1.071,0.258l-1.041,4.311l4.279,1.069l1.075-4.266l1.068,0.269L20.1,13.484z"></path></g></svg>